<?xml version="1.0" encoding="UTF-8"?>
<svg xmlns="http://www.w3.org/2000/svg" xmlns:xlink="http://www.w3.org/1999/xlink" width="60pt" height="60pt" viewBox="0 0 60 60" version="1.1">
<defs>
<filter id="alpha" filterUnits="objectBoundingBox" x="0%" y="0%" width="100%" height="100%">
  <feColorMatrix type="matrix" in="SourceGraphic" values="0 0 0 0 1 0 0 0 0 1 0 0 0 0 1 0 0 0 1 0"/>
</filter>
<mask id="mask0">
  <g filter="url(#alpha)">
<rect x="0" y="0" width="60" height="60" style="fill:rgb(0%,0%,0%);fill-opacity:0.14902;stroke:none;"/>
  </g>
</mask>
<clipPath id="clip1">
  <rect x="0" y="0" width="60" height="60"/>
</clipPath>
<g id="surface5" clip-path="url(#clip1)">
<path style=" stroke:none;fill-rule:nonzero;fill:rgb(1.176471%,0%,2.745098%);fill-opacity:1;" d="M 17.183594 57.949219 L 17.183594 43.390625 C 17.183594 42.421875 17.976562 41.632812 18.941406 41.632812 L 15.542969 41.632812 C 14.578125 41.632812 13.785156 42.421875 13.785156 43.390625 L 13.785156 57.949219 C 13.785156 58.59375 14.3125 59.121094 14.957031 59.121094 L 16.261719 59.121094 C 16.804688 59.121094 17.335938 59.082031 17.859375 59.007812 C 17.460938 58.820312 17.183594 58.417969 17.183594 57.949219 Z M 17.183594 57.949219 "/>
</g>
<mask id="mask1">
  <g filter="url(#alpha)">
<rect x="0" y="0" width="60" height="60" style="fill:rgb(0%,0%,0%);fill-opacity:0.14902;stroke:none;"/>
  </g>
</mask>
<clipPath id="clip2">
  <rect x="0" y="0" width="60" height="60"/>
</clipPath>
<g id="surface8" clip-path="url(#clip2)">
<path style=" stroke:none;fill-rule:nonzero;fill:rgb(28.627451%,0%,53.72549%);fill-opacity:1;" d="M 22.921875 37.5 L 28.074219 39.347656 C 28.140625 39.371094 28.199219 39.414062 28.25 39.46875 L 29.988281 39.46875 C 25.085938 38.011719 21.511719 33.472656 21.511719 28.097656 L 21.511719 22.011719 L 18.136719 22.011719 L 18.136719 28.097656 C 18.136719 31.921875 19.945312 35.320312 22.753906 37.492188 C 22.804688 37.476562 22.859375 37.480469 22.921875 37.5 Z M 22.921875 37.5 "/>
</g>
<mask id="mask2">
  <g filter="url(#alpha)">
<rect x="0" y="0" width="60" height="60" style="fill:rgb(0%,0%,0%);fill-opacity:0.14902;stroke:none;"/>
  </g>
</mask>
<clipPath id="clip3">
  <rect x="0" y="0" width="60" height="60"/>
</clipPath>
<g id="surface11" clip-path="url(#clip3)">
<path style=" stroke:none;fill-rule:nonzero;fill:rgb(28.627451%,0%,53.72549%);fill-opacity:1;" d="M 23.976562 14.746094 C 24.582031 7.84375 27.699219 2.355469 31.679688 1.132812 C 31.132812 0.96875 30.574219 0.878906 30 0.878906 C 25.242188 0.878906 21.304688 6.898438 20.617188 14.746094 Z M 23.976562 14.746094 "/>
</g>
</defs>
<g id="surface1">
<path style=" stroke:none;fill-rule:nonzero;fill:rgb(90.196078%,91.372549%,92.941176%);fill-opacity:1;" d="M 32.34375 47.726562 L 32.34375 45.054688 L 30.230469 42.941406 L 29.769531 42.941406 L 27.65625 45.054688 L 27.65625 47.726562 C 27.65625 54.019531 22.554688 59.121094 16.261719 59.121094 L 43.738281 59.121094 C 37.445312 59.121094 32.34375 54.019531 32.34375 47.726562 Z M 32.34375 47.726562 "/>
<path style=" stroke:none;fill-rule:nonzero;fill:rgb(19.215686%,18.431373%,33.72549%);fill-opacity:1;" d="M 25.398438 47.308594 L 23.734375 48.976562 C 23.277344 49.433594 22.53125 49.433594 22.078125 48.976562 L 21.496094 48.394531 C 21.039062 47.941406 21.039062 47.195312 21.496094 46.738281 L 23.554688 44.679688 L 22.921875 44.90625 C 22.738281 44.972656 22.589844 44.867188 22.589844 44.675781 L 22.589844 41.632812 L 15.542969 41.632812 C 14.578125 41.632812 13.785156 42.421875 13.785156 43.390625 L 13.785156 56.632812 L 14.195312 56.632812 C 19.777344 56.632812 24.425781 52.613281 25.398438 47.308594 Z M 25.398438 47.308594 "/>
<path style=" stroke:none;fill-rule:nonzero;fill:rgb(19.215686%,18.431373%,33.72549%);fill-opacity:1;" d="M 25.398438 47.308594 L 23.734375 48.976562 C 23.277344 49.433594 22.53125 49.433594 22.078125 48.976562 L 21.496094 48.394531 C 21.039062 47.941406 21.039062 47.195312 21.496094 46.738281 L 23.554688 44.679688 L 22.921875 44.90625 C 22.738281 44.972656 22.589844 44.867188 22.589844 44.675781 L 22.589844 41.632812 L 15.542969 41.632812 C 14.578125 41.632812 13.785156 42.421875 13.785156 43.390625 L 13.785156 56.632812 L 14.195312 56.632812 C 19.777344 56.632812 24.425781 52.613281 25.398438 47.308594 Z M 25.398438 47.308594 "/>
<path style=" stroke:none;fill-rule:nonzero;fill:rgb(100%,77.254902%,0.784314%);fill-opacity:1;" d="M 25.398438 47.308594 C 24.425781 52.613281 19.777344 56.632812 14.195312 56.632812 L 13.785156 56.632812 L 13.785156 57.949219 C 13.785156 58.59375 14.3125 59.121094 14.957031 59.121094 L 16.261719 59.121094 C 22.554688 59.121094 27.65625 54.019531 27.65625 47.726562 L 27.65625 45.054688 Z M 25.398438 47.308594 "/>
<use xlink:href="#surface5" mask="url(#mask0)"/>
<path style=" stroke:none;fill-rule:nonzero;fill:rgb(19.215686%,18.431373%,33.72549%);fill-opacity:1;" d="M 44.457031 41.632812 L 37.410156 41.632812 L 37.410156 44.675781 C 37.410156 44.867188 37.261719 44.972656 37.078125 44.90625 L 36.445312 44.679688 L 38.503906 46.738281 C 38.960938 47.195312 38.960938 47.941406 38.503906 48.394531 L 37.921875 48.976562 C 37.46875 49.433594 36.722656 49.433594 36.265625 48.976562 L 34.601562 47.308594 C 35.574219 52.613281 40.222656 56.632812 45.804688 56.632812 L 46.214844 56.632812 L 46.214844 43.390625 C 46.214844 42.421875 45.421875 41.632812 44.457031 41.632812 Z M 44.457031 41.632812 "/>
<path style=" stroke:none;fill-rule:nonzero;fill:rgb(100%,77.254902%,0.784314%);fill-opacity:1;" d="M 45.804688 56.632812 C 40.222656 56.632812 35.574219 52.613281 34.601562 47.308594 L 32.34375 45.054688 L 32.34375 47.726562 C 32.34375 54.019531 37.445312 59.121094 43.738281 59.121094 L 45.042969 59.121094 C 45.6875 59.121094 46.214844 58.59375 46.214844 57.949219 L 46.214844 56.632812 Z M 45.804688 56.632812 "/>
<path style=" stroke:none;fill-rule:nonzero;fill:rgb(69.803922%,46.27451%,18.431373%);fill-opacity:1;" d="M 18.136719 28.097656 L 18.136719 22.265625 L 16.746094 22.265625 C 15.21875 22.265625 13.976562 23.507812 13.976562 25.035156 L 13.976562 28.046875 C 13.976562 29.578125 15.21875 30.820312 16.746094 30.820312 L 18.453125 30.820312 C 18.246094 29.945312 18.136719 29.035156 18.136719 28.097656 Z M 18.136719 28.097656 "/>
<path style=" stroke:none;fill-rule:nonzero;fill:rgb(69.803922%,46.27451%,18.431373%);fill-opacity:1;" d="M 43.25 22.265625 L 41.863281 22.265625 L 41.863281 28.097656 C 41.863281 29.035156 41.753906 29.945312 41.546875 30.820312 L 43.25 30.820312 C 44.78125 30.820312 46.023438 29.578125 46.023438 28.046875 L 46.023438 25.035156 C 46.023438 23.507812 44.78125 22.265625 43.25 22.265625 Z M 43.25 22.265625 "/>
<path style=" stroke:none;fill-rule:nonzero;fill:rgb(81.960784%,58.431373%,27.45098%);fill-opacity:1;" d="M 18.136719 22.011719 L 18.136719 28.097656 C 18.136719 31.921875 19.945312 35.320312 22.753906 37.492188 C 22.804688 37.476562 22.859375 37.480469 22.921875 37.5 L 28.074219 39.347656 C 28.140625 39.371094 28.199219 39.414062 28.25 39.46875 L 31.75 39.46875 C 31.800781 39.414062 31.859375 39.371094 31.925781 39.347656 L 37.078125 37.5 C 37.140625 37.480469 37.195312 37.476562 37.246094 37.492188 C 40.050781 35.320312 41.863281 31.921875 41.863281 28.097656 L 41.863281 22.011719 Z M 18.136719 22.011719 "/>
<use xlink:href="#surface8" mask="url(#mask1)"/>
<path style=" stroke:none;fill-rule:nonzero;fill:rgb(12.54902%,22.745098%,45.490196%);fill-opacity:1;" d="M 37.472656 32.453125 C 37.445312 32.355469 37.375 32.277344 37.28125 32.246094 L 32.105469 30.386719 C 31.917969 30.574219 31.515625 30.703125 31.054688 30.703125 L 29.894531 30.703125 C 29.441406 30.703125 29.046875 30.441406 28.855469 30.0625 L 28.847656 30.0625 C 28.8125 30.0625 28.777344 30.070312 28.746094 30.082031 L 22.71875 32.246094 C 22.625 32.277344 22.550781 32.355469 22.527344 32.453125 C 22.5 32.550781 22.523438 32.65625 22.585938 32.730469 C 22.652344 32.8125 24.253906 34.6875 27.4375 34.6875 C 28.5 34.6875 29.378906 34.285156 30 33.515625 C 30.621094 34.285156 31.5 34.6875 32.5625 34.6875 C 35.746094 34.6875 37.347656 32.8125 37.414062 32.730469 C 37.476562 32.65625 37.5 32.550781 37.472656 32.453125 Z M 37.472656 32.453125 "/>
<path style=" stroke:none;fill-rule:nonzero;fill:rgb(36.470588%,77.647059%,27.843137%);fill-opacity:1;" d="M 39.382812 14.746094 C 38.695312 6.898438 34.757812 0.878906 30 0.878906 C 25.242188 0.878906 21.304688 6.898438 20.617188 14.746094 Z M 39.382812 14.746094 "/>
<path style=" stroke:none;fill-rule:nonzero;fill:rgb(100%,77.254902%,0.784314%);fill-opacity:1;" d="M 25.285156 6.675781 C 25.421875 6.8125 25.644531 6.8125 25.78125 6.675781 L 27.519531 4.921875 C 27.65625 4.785156 27.878906 4.785156 28.015625 4.921875 L 29.753906 6.675781 C 29.886719 6.8125 30.109375 6.8125 30.246094 6.675781 L 31.984375 4.921875 C 32.121094 4.785156 32.34375 4.785156 32.480469 4.921875 L 34.21875 6.675781 C 34.355469 6.8125 34.578125 6.8125 34.714844 6.675781 L 36.085938 5.292969 C 36.152344 5.222656 36.238281 5.121094 36.316406 5.019531 C 34.640625 2.445312 32.425781 0.878906 30 0.878906 C 27.558594 0.878906 25.332031 2.464844 23.652344 5.066406 C 23.753906 5.144531 23.847656 5.222656 23.914062 5.292969 Z M 25.285156 6.675781 "/>
<path style=" stroke:none;fill-rule:nonzero;fill:rgb(1.568627%,40%,60%);fill-opacity:1;" d="M 39.382812 14.746094 C 39.289062 13.699219 39.140625 12.683594 38.941406 11.714844 C 38.847656 11.671875 38.765625 11.621094 38.707031 11.5625 L 36.949219 9.828125 C 36.8125 9.691406 36.585938 9.691406 36.453125 9.832031 L 34.714844 11.585938 C 34.578125 11.722656 34.355469 11.722656 34.21875 11.585938 L 32.480469 9.832031 C 32.34375 9.691406 32.121094 9.691406 31.984375 9.832031 L 30.246094 11.585938 C 30.109375 11.722656 29.886719 11.722656 29.753906 11.585938 L 28.015625 9.832031 C 27.878906 9.691406 27.65625 9.691406 27.519531 9.832031 L 25.78125 11.585938 C 25.644531 11.722656 25.421875 11.722656 25.285156 11.585938 L 23.546875 9.832031 C 23.410156 9.691406 23.1875 9.691406 23.050781 9.828125 L 21.292969 11.5625 C 21.234375 11.621094 21.148438 11.671875 21.058594 11.714844 C 20.859375 12.683594 20.710938 13.699219 20.617188 14.746094 Z M 39.382812 14.746094 "/>
<use xlink:href="#surface11" mask="url(#mask2)"/>
<path style=" stroke:none;fill-rule:nonzero;fill:rgb(19.215686%,18.431373%,33.72549%);fill-opacity:1;" d="M 14.296875 22.011719 C 12.292969 22.011719 10.332031 21.316406 8.777344 20.058594 C 7.246094 18.820312 6.160156 17.085938 5.726562 15.175781 C 5.703125 15.070312 5.730469 14.960938 5.796875 14.878906 C 5.863281 14.792969 5.964844 14.746094 6.070312 14.746094 L 53.929688 14.746094 C 54.035156 14.746094 54.136719 14.792969 54.203125 14.878906 C 54.269531 14.960938 54.296875 15.070312 54.273438 15.175781 C 53.835938 17.085938 52.753906 18.820312 51.222656 20.058594 C 49.667969 21.316406 47.707031 22.011719 45.703125 22.011719 Z M 14.296875 22.011719 "/>
<path style=" stroke:none;fill-rule:nonzero;fill:rgb(100%,77.254902%,0.784314%);fill-opacity:1;" d="M 6.605469 17.46875 L 53.394531 17.46875 C 53.789062 16.75 54.089844 15.980469 54.273438 15.175781 C 54.296875 15.070312 54.269531 14.960938 54.203125 14.875 C 54.136719 14.792969 54.035156 14.746094 53.929688 14.746094 L 6.070312 14.746094 C 5.964844 14.746094 5.863281 14.792969 5.796875 14.875 C 5.730469 14.960938 5.703125 15.070312 5.726562 15.175781 C 5.910156 15.980469 6.210938 16.75 6.605469 17.46875 Z M 6.605469 17.46875 "/>
<path style=" stroke:none;fill-rule:nonzero;fill:rgb(75.294118%,15.294118%,17.647059%);fill-opacity:1;" d="M 41.128906 21.179688 L 38.933594 18.984375 L 36.738281 21.179688 L 34.539062 18.984375 L 32.34375 21.179688 L 30.144531 18.984375 L 27.949219 21.179688 L 25.75 18.984375 L 23.554688 21.179688 L 21.355469 18.984375 L 19.160156 21.179688 L 16.960938 18.984375 L 14.765625 21.179688 L 12.570312 18.984375 L 10.4375 21.113281 C 11.632812 21.699219 12.953125 22.011719 14.296875 22.011719 L 45.703125 22.011719 C 47.117188 22.011719 48.511719 21.664062 49.753906 21.019531 L 47.722656 18.984375 L 45.523438 21.179688 L 43.328125 18.984375 Z M 41.128906 21.179688 "/>
<path style=" stroke:none;fill-rule:nonzero;fill:rgb(93.72549%,31.372549%,31.372549%);fill-opacity:1;" d="M 28.25 42.941406 C 28.199219 42.996094 28.140625 43.035156 28.074219 43.058594 L 23.554688 44.679688 L 21.496094 46.738281 C 21.039062 47.195312 21.039062 47.941406 21.496094 48.394531 L 22.078125 48.976562 C 22.53125 49.433594 23.277344 49.433594 23.734375 48.976562 L 29.769531 42.941406 Z M 28.25 42.941406 "/>
<path style=" stroke:none;fill-rule:nonzero;fill:rgb(93.72549%,31.372549%,31.372549%);fill-opacity:1;" d="M 38.503906 46.738281 L 36.445312 44.679688 L 31.925781 43.058594 C 31.859375 43.035156 31.800781 42.996094 31.75 42.941406 L 30.230469 42.941406 L 36.265625 48.976562 C 36.722656 49.433594 37.46875 49.433594 37.921875 48.976562 L 38.503906 48.394531 C 38.960938 47.941406 38.960938 47.195312 38.503906 46.738281 Z M 38.503906 46.738281 "/>
<path style=" stroke:none;fill-rule:nonzero;fill:rgb(75.294118%,15.294118%,17.647059%);fill-opacity:1;" d="M 37.078125 37.5 L 31.925781 39.347656 C 31.859375 39.371094 31.800781 39.414062 31.75 39.46875 L 32.425781 39.46875 L 32.425781 42.941406 L 31.75 42.941406 C 31.800781 42.996094 31.859375 43.035156 31.925781 43.058594 L 37.078125 44.90625 C 37.261719 44.972656 37.410156 44.867188 37.410156 44.675781 L 37.410156 37.734375 C 37.410156 37.539062 37.261719 37.4375 37.078125 37.5 Z M 37.078125 37.5 "/>
<path style=" stroke:none;fill-rule:nonzero;fill:rgb(75.294118%,15.294118%,17.647059%);fill-opacity:1;" d="M 27.46875 42.941406 L 27.46875 39.46875 L 28.25 39.46875 C 28.199219 39.414062 28.140625 39.371094 28.074219 39.347656 L 22.921875 37.5 C 22.738281 37.4375 22.589844 37.539062 22.589844 37.734375 L 22.589844 44.675781 C 22.589844 44.867188 22.738281 44.972656 22.921875 44.90625 L 28.074219 43.058594 C 28.140625 43.035156 28.199219 42.996094 28.25 42.941406 Z M 27.46875 42.941406 "/>
<path style=" stroke:none;fill-rule:nonzero;fill:rgb(93.72549%,31.372549%,31.372549%);fill-opacity:1;" d="M 27.46875 39.46875 L 32.425781 39.46875 L 32.425781 42.941406 L 27.46875 42.941406 Z M 27.46875 39.46875 "/>
<path style=" stroke:none;fill-rule:nonzero;fill:rgb(0%,0%,0%);fill-opacity:1;" d="M 27.4375 35.566406 C 28.421875 35.566406 29.292969 35.28125 30 34.738281 C 30.707031 35.28125 31.578125 35.566406 32.5625 35.566406 C 36.09375 35.566406 37.894531 33.527344 38.089844 33.292969 C 38.335938 32.996094 38.421875 32.597656 38.320312 32.222656 C 38.21875 31.851562 37.941406 31.546875 37.578125 31.417969 L 33.105469 29.8125 L 33.105469 29.585938 C 33.105469 29.097656 32.710938 28.707031 32.226562 28.707031 C 31.742188 28.707031 31.347656 29.097656 31.347656 29.585938 L 31.347656 29.792969 C 31.269531 29.8125 31.171875 29.824219 31.054688 29.824219 L 29.894531 29.824219 C 29.738281 29.824219 29.601562 29.691406 29.601562 29.53125 L 29.601562 26.207031 C 29.601562 25.722656 29.210938 25.328125 28.722656 25.328125 C 28.238281 25.328125 27.84375 25.722656 27.84375 26.207031 L 27.84375 29.46875 L 22.421875 31.417969 C 22.058594 31.546875 21.777344 31.851562 21.679688 32.222656 C 21.578125 32.597656 21.664062 32.996094 21.910156 33.292969 C 22.105469 33.527344 23.90625 35.566406 27.4375 35.566406 Z M 28.558594 31.082031 C 28.917969 31.394531 29.382812 31.582031 29.894531 31.582031 L 31.054688 31.582031 C 31.492188 31.582031 31.882812 31.5 32.203125 31.355469 L 36.078125 32.746094 C 35.417969 33.21875 34.253906 33.808594 32.5625 33.808594 C 31.769531 33.808594 31.136719 33.523438 30.683594 32.960938 C 30.515625 32.753906 30.265625 32.636719 30 32.636719 C 29.734375 32.636719 29.484375 32.753906 29.316406 32.960938 C 28.863281 33.523438 28.230469 33.808594 27.4375 33.808594 C 25.746094 33.808594 24.585938 33.21875 23.921875 32.746094 Z M 28.558594 31.082031 "/>
<path style=" stroke:none;fill-rule:nonzero;fill:rgb(0%,0%,0%);fill-opacity:1;" d="M 22.367188 26.972656 C 22.855469 26.972656 23.246094 26.578125 23.246094 26.09375 C 23.246094 25.566406 23.675781 25.136719 24.203125 25.136719 C 24.730469 25.136719 25.160156 25.566406 25.160156 26.09375 C 25.160156 26.578125 25.554688 26.972656 26.039062 26.972656 C 26.523438 26.972656 26.917969 26.578125 26.917969 26.09375 C 26.917969 24.597656 25.699219 23.378906 24.203125 23.378906 C 22.707031 23.378906 21.488281 24.597656 21.488281 26.09375 C 21.488281 26.578125 21.882812 26.972656 22.367188 26.972656 Z M 22.367188 26.972656 "/>
<path style=" stroke:none;fill-rule:nonzero;fill:rgb(0%,0%,0%);fill-opacity:1;" d="M 35.796875 23.378906 C 34.300781 23.378906 33.082031 24.597656 33.082031 26.09375 C 33.082031 26.578125 33.476562 26.972656 33.960938 26.972656 C 34.445312 26.972656 34.839844 26.578125 34.839844 26.09375 C 34.839844 25.566406 35.269531 25.136719 35.796875 25.136719 C 36.324219 25.136719 36.753906 25.566406 36.753906 26.09375 C 36.753906 26.578125 37.144531 26.972656 37.632812 26.972656 C 38.117188 26.972656 38.511719 26.578125 38.511719 26.09375 C 38.511719 24.597656 37.292969 23.378906 35.796875 23.378906 Z M 35.796875 23.378906 "/>
<path style=" stroke:none;fill-rule:nonzero;fill:rgb(0%,0%,0%);fill-opacity:1;" d="M 54.890625 14.328125 C 54.65625 14.035156 54.304688 13.867188 53.929688 13.867188 L 40.175781 13.867188 C 39.25 5.839844 35.058594 0 30 0 C 24.941406 0 20.75 5.839844 19.824219 13.867188 L 16.289062 13.867188 C 15.804688 13.867188 15.410156 14.257812 15.410156 14.746094 C 15.410156 15.230469 15.804688 15.625 16.289062 15.625 L 53.238281 15.625 C 53.132812 15.953125 53.003906 16.277344 52.855469 16.589844 L 7.144531 16.589844 C 6.996094 16.277344 6.867188 15.953125 6.761719 15.625 L 11.71875 15.625 C 12.203125 15.625 12.597656 15.230469 12.597656 14.746094 C 12.597656 14.257812 12.203125 13.867188 11.71875 13.867188 L 6.070312 13.867188 C 5.695312 13.867188 5.34375 14.035156 5.109375 14.328125 C 4.875 14.621094 4.789062 15 4.871094 15.367188 C 5.347656 17.472656 6.539062 19.378906 8.222656 20.742188 C 9.808594 22.023438 11.777344 22.773438 13.808594 22.875 C 13.363281 23.480469 13.097656 24.226562 13.097656 25.035156 L 13.097656 28.046875 C 13.097656 30.0625 14.734375 31.699219 16.746094 31.699219 L 17.777344 31.699219 C 18.480469 34.085938 19.871094 36.179688 21.710938 37.761719 L 21.710938 40.75 L 15.542969 40.75 C 14.089844 40.75 12.90625 41.933594 12.90625 43.386719 L 12.90625 57.949219 C 12.90625 59.078125 13.828125 60 14.957031 60 L 45.042969 60 C 46.171875 60 47.09375 59.078125 47.09375 57.949219 L 47.09375 43.390625 C 47.09375 41.933594 45.910156 40.75 44.457031 40.75 L 38.289062 40.75 L 38.289062 37.773438 C 38.683594 37.433594 39.058594 37.074219 39.410156 36.6875 C 39.738281 36.328125 39.714844 35.773438 39.355469 35.445312 C 38.996094 35.117188 38.441406 35.144531 38.113281 35.5 C 37.738281 35.914062 37.332031 36.292969 36.90625 36.636719 C 36.863281 36.648438 36.824219 36.660156 36.78125 36.675781 L 31.628906 38.519531 C 31.574219 38.539062 31.523438 38.5625 31.476562 38.589844 L 28.523438 38.589844 C 28.476562 38.5625 28.425781 38.539062 28.371094 38.519531 L 23.21875 36.675781 C 23.179688 36.660156 23.140625 36.648438 23.101562 36.640625 C 20.613281 34.625 19.015625 31.542969 19.015625 28.097656 L 19.015625 22.890625 L 40.984375 22.890625 L 40.984375 28.097656 C 40.984375 29.296875 40.792969 30.472656 40.414062 31.59375 C 40.261719 32.054688 40.507812 32.554688 40.96875 32.707031 C 41.429688 32.863281 41.925781 32.613281 42.082031 32.15625 C 42.132812 32.003906 42.179688 31.851562 42.222656 31.699219 L 43.253906 31.699219 C 45.265625 31.699219 46.902344 30.0625 46.902344 28.046875 L 46.902344 25.035156 C 46.902344 24.226562 46.636719 23.480469 46.191406 22.875 C 48.222656 22.773438 50.191406 22.023438 51.777344 20.742188 C 53.460938 19.378906 54.652344 17.472656 55.128906 15.367188 C 55.210938 15 55.125 14.621094 54.890625 14.328125 Z M 30 1.757812 C 31.933594 1.757812 33.742188 2.941406 35.199219 4.9375 L 34.464844 5.675781 L 33.105469 4.300781 C 32.875 4.066406 32.5625 3.9375 32.234375 3.9375 C 31.902344 3.9375 31.59375 4.066406 31.359375 4.300781 L 30 5.675781 L 28.640625 4.300781 C 28.40625 4.066406 28.097656 3.9375 27.765625 3.9375 C 27.4375 3.9375 27.128906 4.066406 26.894531 4.300781 L 25.535156 5.675781 L 24.800781 4.9375 C 26.257812 2.941406 28.066406 1.757812 30 1.757812 Z M 23.839844 6.464844 L 24.660156 7.296875 C 24.894531 7.53125 25.203125 7.660156 25.535156 7.660156 C 25.863281 7.660156 26.171875 7.53125 26.40625 7.296875 L 27.765625 5.921875 L 29.128906 7.296875 C 29.359375 7.53125 29.667969 7.660156 30 7.660156 C 30.332031 7.660156 30.640625 7.53125 30.871094 7.296875 L 32.234375 5.921875 L 33.59375 7.292969 C 33.824219 7.53125 34.136719 7.660156 34.464844 7.660156 C 34.796875 7.660156 35.105469 7.53125 35.335938 7.296875 L 36.160156 6.464844 C 36.578125 7.234375 36.949219 8.078125 37.273438 8.988281 C 36.808594 8.742188 36.214844 8.820312 35.828125 9.210938 L 34.464844 10.585938 L 33.105469 9.210938 C 32.875 8.976562 32.5625 8.847656 32.234375 8.847656 C 31.902344 8.847656 31.59375 8.976562 31.359375 9.210938 L 30 10.585938 L 28.640625 9.210938 C 28.40625 8.976562 28.097656 8.847656 27.765625 8.847656 C 27.4375 8.847656 27.128906 8.976562 26.894531 9.210938 L 25.535156 10.585938 L 24.171875 9.210938 C 23.785156 8.820312 23.191406 8.746094 22.726562 8.988281 C 23.046875 8.078125 23.421875 7.234375 23.839844 6.464844 Z M 21.597656 13.867188 C 21.667969 13.3125 21.75 12.769531 21.851562 12.238281 C 21.871094 12.222656 21.890625 12.203125 21.910156 12.1875 L 23.292969 10.820312 L 24.660156 12.203125 C 24.894531 12.4375 25.203125 12.566406 25.535156 12.566406 C 25.863281 12.566406 26.171875 12.4375 26.40625 12.203125 L 27.765625 10.828125 L 29.128906 12.203125 C 29.359375 12.4375 29.667969 12.566406 30 12.566406 C 30.332031 12.566406 30.640625 12.4375 30.871094 12.203125 L 32.234375 10.828125 L 33.59375 12.203125 C 33.824219 12.4375 34.136719 12.566406 34.464844 12.566406 C 34.796875 12.566406 35.105469 12.4375 35.335938 12.203125 L 36.707031 10.820312 L 38.089844 12.1875 C 38.109375 12.203125 38.128906 12.222656 38.148438 12.238281 C 38.25 12.769531 38.332031 13.3125 38.402344 13.867188 Z M 14.957031 58.242188 C 14.800781 58.242188 14.664062 58.109375 14.664062 57.949219 L 14.664062 57.5 C 20.363281 57.285156 25.078125 53.164062 26.207031 47.742188 L 26.777344 47.175781 L 26.777344 47.726562 C 26.777344 53.523438 22.058594 58.242188 16.261719 58.242188 Z M 29.121094 58.242188 L 22.582031 58.242188 C 26.144531 56.09375 28.535156 52.183594 28.535156 47.726562 L 28.535156 45.417969 L 29.121094 44.832031 Z M 39.125 46.117188 L 38.179688 45.171875 C 38.25 45.023438 38.289062 44.855469 38.289062 44.675781 L 38.289062 42.507812 L 44.457031 42.507812 C 44.941406 42.507812 45.335938 42.902344 45.335938 43.390625 L 45.335938 55.742188 C 41.492188 55.570312 38.179688 53.328125 36.488281 50.105469 C 36.683594 50.164062 36.886719 50.195312 37.09375 50.195312 C 37.644531 50.195312 38.160156 49.984375 38.542969 49.597656 L 39.125 49.019531 C 39.925781 48.21875 39.925781 46.917969 39.125 46.117188 Z M 33.304688 39.789062 L 36.53125 38.632812 L 36.53125 43.777344 L 33.304688 42.621094 Z M 35.960938 45.441406 L 37.882812 47.359375 C 37.992188 47.472656 37.992188 47.664062 37.882812 47.773438 L 37.300781 48.355469 C 37.226562 48.429688 37.140625 48.4375 37.09375 48.4375 C 37.046875 48.4375 36.960938 48.429688 36.886719 48.355469 L 32.863281 44.328125 Z M 32.589844 52.867188 C 32.792969 53.308594 33.316406 53.503906 33.757812 53.296875 C 34.199219 53.09375 34.390625 52.574219 34.1875 52.132812 C 33.546875 50.746094 33.222656 49.265625 33.222656 47.726562 L 33.222656 47.175781 L 33.789062 47.742188 C 34.921875 53.164062 39.636719 57.285156 45.335938 57.5 L 45.335938 57.949219 C 45.335938 58.109375 45.199219 58.242188 45.042969 58.242188 L 43.738281 58.242188 C 41.015625 58.242188 38.433594 57.207031 36.46875 55.324219 C 36.117188 54.988281 35.558594 55 35.222656 55.351562 C 34.890625 55.699219 34.902344 56.257812 35.25 56.59375 C 35.914062 57.226562 36.640625 57.777344 37.410156 58.242188 L 30.878906 58.242188 L 30.878906 44.832031 L 31.464844 45.417969 L 31.464844 47.726562 C 31.464844 49.519531 31.84375 51.25 32.589844 52.867188 Z M 28.347656 40.347656 L 31.546875 40.347656 L 31.546875 42.0625 L 28.347656 42.0625 Z M 23.46875 38.632812 L 26.589844 39.75 L 26.589844 42.660156 L 23.46875 43.777344 Z M 22.117188 47.359375 L 24.035156 45.441406 L 27.136719 44.328125 L 23.113281 48.355469 C 23.039062 48.429688 22.949219 48.4375 22.90625 48.4375 C 22.859375 48.4375 22.769531 48.429688 22.699219 48.355469 L 22.117188 47.773438 C 22.003906 47.664062 22.003906 47.472656 22.117188 47.359375 Z M 20.875 49.015625 L 21.457031 49.597656 C 21.839844 49.984375 22.355469 50.195312 22.90625 50.195312 C 23.113281 50.195312 23.316406 50.164062 23.511719 50.105469 C 21.820312 53.328125 18.507812 55.570312 14.664062 55.742188 L 14.664062 43.390625 C 14.664062 43.328125 14.671875 43.269531 14.683594 43.210938 C 14.765625 42.8125 15.121094 42.507812 15.542969 42.507812 L 21.710938 42.507812 L 21.710938 44.675781 C 21.710938 44.855469 21.75 45.023438 21.820312 45.171875 L 20.875 46.117188 C 20.074219 46.917969 20.074219 48.21875 20.875 49.015625 Z M 11.945312 18.363281 L 10.277344 20.03125 C 9.949219 19.835938 9.628906 19.617188 9.328125 19.375 C 8.945312 19.066406 8.59375 18.722656 8.277344 18.347656 L 11.964844 18.347656 C 11.957031 18.351562 11.953125 18.359375 11.945312 18.363281 Z M 12.003906 20.789062 L 12.570312 20.226562 L 13.421875 21.082031 C 12.941406 21.027344 12.464844 20.929688 12.003906 20.789062 Z M 13.191406 18.363281 C 13.183594 18.359375 13.179688 18.351562 13.171875 18.347656 L 16.355469 18.347656 C 16.351562 18.351562 16.347656 18.359375 16.339844 18.363281 L 14.765625 19.9375 Z M 16.746094 29.941406 C 15.703125 29.941406 14.855469 29.089844 14.855469 28.046875 L 14.855469 25.035156 C 14.855469 23.992188 15.703125 23.144531 16.746094 23.144531 L 17.257812 23.144531 L 17.257812 25.601562 L 16.640625 25.601562 C 16.152344 25.601562 15.761719 25.992188 15.761719 26.480469 C 15.761719 26.964844 16.152344 27.359375 16.640625 27.359375 L 17.257812 27.359375 L 17.257812 28.097656 C 17.257812 28.722656 17.304688 29.339844 17.394531 29.941406 Z M 16.058594 21.132812 L 16.960938 20.226562 L 17.867188 21.132812 Z M 17.585938 18.363281 C 17.578125 18.359375 17.574219 18.351562 17.566406 18.347656 L 20.75 18.347656 C 20.746094 18.351562 20.742188 18.359375 20.734375 18.363281 L 19.160156 19.9375 Z M 20.453125 21.132812 L 21.355469 20.226562 L 22.261719 21.132812 Z M 21.976562 18.363281 C 21.972656 18.359375 21.96875 18.351562 21.960938 18.347656 L 25.144531 18.347656 C 25.140625 18.351562 25.132812 18.359375 25.128906 18.363281 L 23.554688 19.9375 Z M 24.847656 21.132812 L 25.75 20.226562 L 26.65625 21.132812 Z M 26.371094 18.363281 C 26.367188 18.359375 26.363281 18.351562 26.355469 18.347656 L 29.539062 18.347656 C 29.535156 18.351562 29.527344 18.359375 29.523438 18.363281 L 27.949219 19.9375 Z M 29.242188 21.132812 L 30.144531 20.226562 L 31.050781 21.132812 Z M 30.765625 18.363281 C 30.761719 18.359375 30.753906 18.351562 30.75 18.347656 L 33.933594 18.347656 C 33.929688 18.351562 33.921875 18.359375 33.917969 18.363281 L 32.34375 19.9375 Z M 33.636719 21.132812 L 34.539062 20.226562 L 35.445312 21.132812 Z M 35.160156 18.363281 C 35.15625 18.359375 35.148438 18.351562 35.144531 18.347656 L 38.328125 18.347656 C 38.324219 18.351562 38.316406 18.359375 38.3125 18.363281 L 36.738281 19.9375 Z M 38.03125 21.132812 L 38.933594 20.226562 L 39.835938 21.132812 Z M 41.128906 19.9375 L 39.554688 18.363281 C 39.550781 18.359375 39.542969 18.351562 39.539062 18.347656 L 42.722656 18.347656 C 42.71875 18.351562 42.710938 18.359375 42.707031 18.363281 Z M 43.328125 20.226562 L 44.230469 21.132812 L 42.421875 21.132812 Z M 45.144531 28.046875 C 45.144531 29.089844 44.296875 29.941406 43.25 29.941406 L 42.605469 29.941406 C 42.695312 29.332031 42.742188 28.71875 42.742188 28.097656 L 42.742188 27.359375 L 43.359375 27.359375 C 43.847656 27.359375 44.238281 26.964844 44.238281 26.480469 C 44.238281 25.992188 43.847656 25.601562 43.359375 25.601562 L 42.742188 25.601562 L 42.742188 23.144531 L 43.25 23.144531 C 44.296875 23.144531 45.144531 23.992188 45.144531 25.035156 Z M 45.523438 19.9375 L 43.949219 18.363281 C 43.945312 18.359375 43.9375 18.351562 43.933594 18.347656 L 47.117188 18.347656 C 47.109375 18.351562 47.105469 18.359375 47.101562 18.363281 Z M 46.914062 21.035156 L 47.722656 20.226562 L 48.214844 20.71875 C 47.789062 20.859375 47.355469 20.96875 46.914062 21.035156 Z M 50.671875 19.375 C 50.425781 19.574219 50.167969 19.757812 49.902344 19.921875 L 48.34375 18.363281 C 48.339844 18.359375 48.332031 18.351562 48.328125 18.347656 L 51.722656 18.347656 C 51.40625 18.722656 51.054688 19.066406 50.671875 19.375 Z M 50.671875 19.375 "/>
</g>
</svg>
